<?xml version="1.0" encoding="utf-8"?>
<!-- Generator: Adobe Illustrator 21.1.0, SVG Export Plug-In . SVG Version: 6.00 Build 0)  -->
<svg version="1.1" id="Layer_1" xmlns="http://www.w3.org/2000/svg" xmlns:xlink="http://www.w3.org/1999/xlink" x="0px" y="0px"
	 viewBox="0 0 800 566" style="enable-background:new 0 0 800 566;" xml:space="preserve">
<path d="M607.5,370.6l-33.9,111.6c-3.7,12.2-16.7,19.2-28.9,15.4c-12.2-3.7-19.2-16.7-15.4-28.9l33.9-111.6c2.7-9,10.4-15,19.1-16.2
	c3.2-15.2,4.9-31,4.9-47.3c0-115.4-84.3-209.3-188-209.3c-103.6,0-188,93.9-188,209.3c0,16.2,1.7,32,4.9,47.2
	c9.3,0.6,17.7,6.8,20.6,16.3l33.9,111.6c3.7,12.2-3.2,25.2-15.4,28.9c-12.2,3.7-25.2-3.2-28.9-15.4l-33.9-111.6
	c-2.8-9.3,0.5-18.9,7.6-24.7c-3.6-16.8-5.6-34.3-5.6-52.3c0-124.7,91.9-226.1,204.8-226.1c112.9,0,204.8,101.4,204.8,226.1
	c0,17.7-1.9,34.9-5.4,51.4C606.6,350.6,610.5,360.8,607.5,370.6z M181.4,387.2c-1.7-5.6-7.6-8.7-13.1-7c-5.6,1.7-8.7,7.6-7,13.1
	l26.5,87.4c1.7,5.6,7.6,8.7,13.1,7c5.6-1.7,8.7-7.6,7-13.1L181.4,387.2z M631.8,380.1c-5.6-1.7-11.5,1.5-13.1,7l-26.5,87.4
	c-1.7,5.6,1.5,11.5,7,13.1c5.6,1.7,11.5-1.5,13.1-7l26.5-87.4C640.5,387.7,637.3,381.8,631.8,380.1z"/>
</svg>
